PathFileType	4	(X/Y/Z)	C:\Users\Basilio\Documents\Thesis Gigler\squatting_fais\c3dfiles\058\SLS_front_pre3\markers_experimental.trc
DataRate	CameraRate	NumFrames	NumMarkers	Units	OrigDataRate	OrigDataStartFrame	OrigNumFrames
200.000000	200.000000	4	61	mm	200.000000	947	1263
Frame#	Time	FHD			LBHD			RBHD			C7			T10			CLAV			LSHO			LUUPA			LMUPA			LDUPA			LLEP			LMEP			LRAD			LUL			LRFIN			RSHO			RUPA1			RMUPA			RDUPA			RLEP			RMEP			RRAD			RUL			RUFIN			LASI			RASI			USACR			LSACR			RSACR			LTHI1			LTHI2			LTHI3			LTHI4			LLFC			LMFC			LTIB1			LTIB2			LTIB3			LTIB4			LLMAL			LMMAL			LHEE			LMT1			LMT2			LMT5			RTHI			RTHI2			RTHI3			RTHI4			RLFC			RMFC			RTIB1			RTIB2			RTIB3			RTIB4			RLMAL			RMMAL			RHEE			RMT1			RMT2			RMT5			
		X1	Y1	Z1	X2	Y2	Z2	X3	Y3	Z3	X4	Y4	Z4	X5	Y5	Z5	X6	Y6	Z6	X7	Y7	Z7	X8	Y8	Z8	X9	Y9	Z9	X10	Y10	Z10	X11	Y11	Z11	X12	Y12	Z12	X13	Y13	Z13	X14	Y14	Z14	X15	Y15	Z15	X16	Y16	Z16	X17	Y17	Z17	X18	Y18	Z18	X19	Y19	Z19	X20	Y20	Z20	X21	Y21	Z21	X22	Y22	Z22	X23	Y23	Z23	X24	Y24	Z24	X25	Y25	Z25	X26	Y26	Z26	X27	Y27	Z27	X28	Y28	Z28	X29	Y29	Z29	X30	Y30	Z30	X31	Y31	Z31	X32	Y32	Z32	X33	Y33	Z33	X34	Y34	Z34	X35	Y35	Z35	X36	Y36	Z36	X37	Y37	Z37	X38	Y38	Z38	X39	Y39	Z39	X40	Y40	Z40	X41	Y41	Z41	X42	Y42	Z42	X43	Y43	Z43	X44	Y44	Z44	X45	Y45	Z45	X46	Y46	Z46	X47	Y47	Z47	X48	Y48	Z48	X49	Y49	Z49	X50	Y50	Z50	X51	Y51	Z51	X52	Y52	Z52	X53	Y53	Z53	X54	Y54	Z54	X55	Y55	Z55	X56	Y56	Z56	X57	Y57	Z57	X58	Y58	Z58	X59	Y59	Z59	X60	Y60	Z60	X61	Y61	Z61	

948	4.735	-305.5107116699219	1814.951049804688	-602.6116333007814	-459.8976440429689	1757.00146484375	-675.1602783203126	-295.0231323242188	1824.120849609375	-744.6788330078126	-469.8669433593751	1603.200073242188	-690.3267822265626	-477.0132751464845	1294.542724609375	-685.1927490234376	-308.4393005371094	1562.38916015625	-678.6809692382814	-321.0547485351563	1614.992065429688	-831.6535644531252	-171.3796844482422	1546.482299804688	-949.0401000976565	-144.6720275878907	1582.838134765625	-924.1228027343752	-101.5033645629883	1547.1318359375	-944.3250122070315	-24.99522972106934	1549.881591796875	-931.2501220703127	-20.20001792907715	1492.556274414063	-898.589538574219	241.2045593261719	1559.758544921875	-827.8085937500002	244.8331298828126	1583.614501953125	-905.6768188476565	340.5628662109376	1585.298461914063	-826.9956665039065	-330.6498107910157	1609.235107421875	-523.6641235351564	-170.0624389648438	1522.69873046875	-420.732391357422	-147.964111328125	1562.055908203125	-443.1821289062501	-101.0745086669922	1532.558227539063	-422.5597229003907	-33.78888320922852	1525.706665039063	-432.0362243652345	-25.99455070495606	1469.998046875	-485.8176879882814	235.4324188232422	1564.57958984375	-517.0710449218751	234.0674438476563	1575.018920898438	-435.597869873047	327.5136718750001	1590.963012695313	-502.253875732422	-303.3350219726563	1117.998779296875	-842.8563232421877	-283.7590332031251	1081.007202148438	-606.1624145507814	-487.5378417968751	1172.1416015625	-687.7136840820314	-498.463836669922	1144.15966796875	-718.4601440429689	-486.1923828125001	1136.486572265625	-662.7287597656251	-245.0827636718751	880.0532836914065	-930.980407714844	-184.4064331054688	822.4028930664065	-922.8741455078127	-147.1605834960938	838.3587036132815	-891.3592529296877	-185.7307586669922	762.0668945312501	-920.1997070312502	-138.2685546875	674.3162841796876	-912.0975341796877	-124.020980834961	665.5413818359376	-784.0523071289065	-27.95114326477051	577.9765625000001	-875.725036621094	-52.18346405029298	525.8550415039064	-938.352722167969	-15.85432529449463	533.8367309570314	-912.3721313476565	22.07182121276856	461.3614196777345	-890.9864501953127	61.046443939209	258.7618408203126	-920.4048461914065	74.60544586181642	278.3498535156251	-829.7464599609377	24.40667724609376	194.0913391113282	-871.562927246094	222.6127319335938	291.1665954589844	-847.679382324219	227.0198974609376	299.5348205566407	-893.6838989257815	195.624984741211	259.7179870605469	-948.9527587890627	-387.1487731933595	865.7891845703127	-556.3247070312501	-348.6499938964844	811.551696777344	-555.2680664062501	-315.2313537597657	812.7937011718752	-556.2565917968751	-372.9353332519532	733.9687500000001	-578.8887329101564	-360.7256469726563	555.4866943359376	-609.9023437500001	-320.8561401367188	553.0875854492189	-740.6295776367189	-304.7737121582032	357.3444824218751	-706.3761596679689	-344.6216125488282	275.1354675292969	-648.3671264648439	-307.1111145019532	270.7175598144532	-678.6066894531251	-314.6875000000001	229.5135955810547	-717.2631225585939	-374.1670837402344	116.2496566772461	-686.9074707031251	-341.6203002929688	145.005844116211	-771.0422363281252	-437.7185363769532	101.7494735717774	-752.2604370117189	-228.058090209961	60.71601867675783	-765.5370483398439	-222.441390991211	57.19311904907228	-713.2877197265626	-270.6615905761719	25.24042129516602	-662.9054565429689	
949	4.74	-305.6231079101563	1814.88037109375	-602.8084106445314	-460.0071411132814	1757.041748046875	-675.2825317382814	-295.1769409179688	1824.165405273438	-744.8224487304689	-469.9498291015626	1603.182739257813	-690.4478759765626	-476.935028076172	1294.568115234375	-685.3584594726564	-308.4708557128907	1562.351928710938	-678.8322753906251	-321.1735839843751	1614.973876953125	-831.7869873046877	-171.4334259033203	1546.528564453125	-949.1018066406252	-144.7365417480469	1582.842407226563	-924.1868896484377	-101.5412750244141	1547.095825195313	-944.436950683594	-25.10089874267579	1549.881469726563	-931.2608642578127	-20.36507225036621	1492.5732421875	-898.518249511719	241.1108703613282	1559.783569335938	-827.8671875000002	244.6329193115235	1583.651611328125	-905.644470214844	340.5294494628907	1585.328247070313	-826.9717407226565	-330.8314514160157	1609.221923828125	-523.8397216796876	-170.2796325683594	1522.699584960938	-420.8557739257814	-148.0836029052735	1562.061889648438	-443.2909545898439	-101.2552947998047	1532.363037109375	-422.6229858398439	-33.88347625732423	1525.713012695313	-432.1565551757814	-26.08026885986329	1469.983520507813	-485.9223632812501	233.5681304931641	1563.814453125	-517.4804077148439	233.8972473144532	1574.92724609375	-435.6561584472657	327.4744262695313	1591.011962890625	-502.2917785644532	-303.3564147949219	1117.903686523438	-842.9715576171877	-283.7688598632813	1080.9970703125	-606.2131347656251	-487.5590820312501	1172.130981445313	-687.8176269531251	-498.494354248047	1144.18994140625	-718.5883789062501	-486.1485290527345	1136.49267578125	-662.8139648437501	-245.1396484375001	879.9992675781252	-931.0795898437502	-184.4419250488282	822.3809204101565	-922.8979492187502	-147.1519622802735	838.3469848632815	-891.428405761719	-185.7337646484375	762.0270385742189	-920.211608886719	-138.2779083251953	674.2831420898439	-912.057067871094	-124.0182800292969	665.5433349609376	-784.0549316406252	-27.89522361755372	577.9616699218751	-875.7378540039065	-52.14658355712892	525.7879028320314	-938.2797851562502	-15.84954071044922	533.8538208007814	-912.2764892578127	21.9232177734375	461.3597412109376	-891.003601074219	61.19055175781251	258.7902221679688	-920.2019653320315	74.66141510009767	278.4106140136719	-829.6206054687502	24.4262809753418	194.1081848144532	-871.4860839843752	222.6189270019532	291.2176208496094	-847.338806152344	227.0759429931641	299.6623535156251	-893.2991333007815	195.8727722167969	259.7541809082032	-948.6123046875002	-387.1412658691407	865.7910156250002	-556.5314941406251	-348.7224121093751	811.510925292969	-555.3720092773439	-315.2767639160157	812.7979736328127	-556.3960571289064	-372.9380798339844	734.0055541992189	-579.0045166015626	-360.8359985351563	555.5998535156251	-610.0933837890626	-321.0668640136719	553.0460815429689	-740.7805175781251	-304.7032470703126	357.3904418945313	-706.4531860351564	-344.6553344726563	275.1380615234376	-648.4058837890626	-307.1030883789063	270.7167053222657	-678.6818237304689	-314.6790771484376	229.5464935302735	-717.3626708984376	-374.1248168945313	116.2341003417969	-686.9800415039064	-341.6461486816407	144.9724884033203	-771.103210449219	-437.7225341796876	101.7313766479492	-752.2670898437501	-228.1971588134766	61.16368865966798	-765.6569213867189	-221.3152008056641	59.00976562500001	-713.5928955078126	-270.6737060546876	25.22420883178712	-662.9298706054689	
950	4.745	-305.7531127929688	1814.82421875	-602.8706054687501	-460.0295715332032	1757.0361328125	-675.3930664062501	-295.1423034667969	1824.105102539063	-744.8603515625001	-470.042205810547	1603.080322265625	-690.5407714843751	-476.9265747070314	1294.594848632813	-685.5709228515626	-308.5912170410157	1562.349365234375	-678.9144897460939	-321.1953430175782	1615.004516601563	-831.9051513671877	-171.3998107910157	1546.486694335938	-949.1922607421877	-144.7006072998047	1582.833374023438	-924.206481933594	-101.4886779785157	1547.121826171875	-944.5130615234377	-25.12870597839356	1549.925415039063	-931.3078613281252	-20.46092414855957	1492.596923828125	-898.4539184570315	241.0205841064454	1559.8330078125	-827.8181152343752	244.6613159179688	1583.679931640625	-905.7117919921877	340.4128723144532	1585.373779296875	-826.9661865234377	-330.9333496093751	1609.192993164063	-523.8217163085939	-170.4631500244141	1522.615478515625	-420.947967529297	-148.2037811279297	1561.986328125	-443.4668273925782	-101.4061431884766	1532.237426757813	-422.7457885742189	-34.03745651245118	1525.638916015625	-432.2169494628907	-26.1428623199463	1469.944458007813	-486.0097656250001	233.2603607177735	1563.808715820313	-517.4596557617189	233.8443603515626	1574.937255859375	-435.647918701172	327.4488220214844	1591.086791992188	-502.2597045898439	-303.3841247558594	1117.895385742188	-843.125183105469	-283.7655944824219	1081.001708984375	-606.3065185546876	-487.505828857422	1172.045532226563	-687.9009399414064	-498.4433593750001	1144.193969726563	-718.6621704101564	-486.1948547363282	1136.50439453125	-662.9005737304689	-245.1537322998047	879.9519042968752	-931.083679199219	-184.4894714355469	822.2846679687502	-922.949157714844	-147.1921539306641	838.313171386719	-891.5220947265627	-185.7778015136719	762.0278930664064	-920.2377929687502	-138.2191467285157	674.3184204101564	-912.234802246094	-124.0436325073242	665.5265502929689	-784.0386352539065	-27.93015861511231	577.8399658203126	-875.6326904296877	-52.17503738403322	525.7287597656251	-938.1878662109377	-15.83616256713868	533.8164062500001	-912.200622558594	21.85896301269532	461.3154602050782	-890.9688720703127	61.26582336425783	258.7864685058594	-919.9645996093752	74.68071746826173	278.4533996582032	-829.480407714844	24.45218658447266	194.1016082763672	-871.3297119140627	222.6130371093751	291.2167358398438	-847.0017700195315	227.1324310302735	299.7448425292969	-892.972106933594	195.9525299072266	259.7370605468751	-948.245300292969	-387.1633605957032	865.789489746094	-556.6367187500001	-348.7980346679688	811.460632324219	-555.4753417968751	-315.3082580566407	812.7449951171877	-556.5227050781251	-373.0070190429688	734.0284423828126	-579.1768798828126	-361.0851745605469	555.6295776367189	-610.2315063476564	-321.1801452636719	553.0214233398439	-740.9419555664064	-304.7316589355469	357.3428039550782	-706.5806884765626	-344.6840209960938	275.1446533203126	-648.5216064453126	-307.2362976074219	270.7323303222657	-678.7349853515626	-314.6604614257813	229.4910888671876	-717.4335937500001	-374.1721191406251	116.2259597778321	-687.0553588867189	-341.6597900390626	144.9288024902344	-771.1538085937502	-437.7247314453126	101.7033767700196	-752.2985229492189	-228.0017547607422	60.83016586303712	-765.5841064453126	-222.2406768798829	57.54431533813478	-713.3799438476564	-270.7005920410157	25.28680419921876	-662.8714599609376	
951	4.75	-305.8136291503907	1814.767822265625	-602.9955444335939	-460.2569885253907	1757.027465820313	-675.4761352539064	-295.1593627929688	1824.156005859375	-744.9547119140626	-470.2055664062501	1602.992431640625	-690.5992431640626	-477.0991516113282	1294.481079101563	-685.6817626953126	-308.7440795898438	1562.31787109375	-679.0970458984376	-321.2980957031251	1614.9814453125	-832.0264282226565	-171.4595794677735	1546.380859375	-949.4965820312502	-144.8254547119141	1582.866943359375	-924.308532714844	-101.536247253418	1547.107421875	-944.6146240234377	-25.26754760742188	1549.93603515625	-931.2889404296877	-20.77701377868653	1492.718627929688	-898.437438964844	240.9484558105469	1559.866577148438	-827.875183105469	244.5408020019532	1583.7021484375	-905.7390747070315	340.3988952636719	1585.32177734375	-826.9852294921877	-331.0057373046876	1609.253295898438	-524.0427246093751	-170.6004333496094	1522.72998046875	-421.0480041503907	-148.2076416015625	1562.101684570313	-443.5740356445314	-101.4443054199219	1532.255493164063	-422.8223266601564	-34.15882110595704	1525.597045898438	-432.3221130371095	-26.19367980957032	1469.905517578125	-486.0967102050782	233.1521148681641	1563.857543945313	-517.5328369140626	233.7796020507813	1574.943359375	-435.6896972656251	327.2419433593751	1590.949340820313	-502.4717712402345	-303.3902282714844	1117.86669921875	-843.2307739257815	-283.7838745117188	1081.011474609375	-606.4261474609376	-487.5331115722657	1172.0126953125	-688.0114135742189	-498.4553527832032	1144.232177734375	-718.7716064453126	-486.1795349121095	1136.395629882813	-662.9310913085939	-245.1155090332032	879.8623657226565	-931.0784301757815	-184.5264282226563	822.2689208984377	-922.9465332031252	-147.2013854980469	838.1914672851565	-891.5854492187502	-185.8124542236328	761.9555053710939	-920.2463378906252	-138.3380584716797	674.1763305664064	-911.908874511719	-124.0699844360352	665.5596313476564	-784.0293579101565	-27.84949493408204	577.9100952148439	-875.6628417968752	-52.16958618164064	525.6260986328126	-938.1397705078127	-15.86151885986328	533.8208007812501	-912.2100219726565	22.25707054138184	461.2506713867189	-890.670104980469	61.30852127075197	258.7406311035157	-919.7634277343752	74.68298339843751	278.4992675781251	-829.3371582031252	24.69374465942384	194.3854980468751	-871.2370605468752	222.6966400146485	291.2868957519532	-846.6599121093752	227.1975860595704	299.7677917480469	-892.6814575195315	196.0437469482422	259.6675109863282	-947.9138183593752	-387.1795654296876	865.8237915039065	-556.7446899414064	-348.9078369140626	811.4251098632815	-555.5861816406251	-315.4049987792969	812.681823730469	-556.7026977539064	-373.0238342285157	734.0811767578126	-579.2940063476564	-361.2115173339844	555.6334838867189	-610.3591308593751	-321.2647094726563	553.0349121093751	-741.0239868164064	-304.7477416992188	357.3079528808594	-706.6984252929689	-344.6990661621094	275.1699523925782	-648.5559082031251	-307.2922363281251	270.7454528808594	-678.8187255859376	-314.7159423828126	229.5659942626954	-717.5129394531251	-374.0817565917969	116.2649841308594	-687.0711059570314	-341.6687927246094	144.9007873535157	-771.2388305664065	-437.7489013671876	101.6943511962891	-752.3211059570314	-228.0931091308594	61.20302200317384	-765.7147216796876	-221.3663635253907	58.99140930175783	-713.6228027343751	-270.6710510253907	25.24554061889649	-662.9221801757814	
